<svg width="179" height="27" viewBox="0 0 179 27" fill="none" xmlns="http://www.w3.org/2000/svg">
<g clip-path="url(#clip0_992_743)">
<path d="M51.1857 0.847168H54.6143V24.7377H48.2785L37.4291 2.33274H37.3422V24.7377H33.9136V0.847168H39.8149L51.0988 23.2521H51.1857V0.847168Z" fill="white"/>
<path d="M66.8961 25.1624C64.9869 25.1624 63.3881 24.7813 62.0996 24.0167C60.811 23.2521 59.8502 22.2059 59.2122 20.8756C58.5766 19.5454 58.2563 18.0186 58.2563 16.2927C58.2563 14.5668 58.5741 13.0327 59.2122 11.6879C59.8478 10.3456 60.811 9.28965 62.0996 8.52745C63.3856 7.76282 64.9845 7.38171 66.8961 7.38171C69.7016 7.38171 71.8442 8.19489 73.3189 9.82125C74.7936 11.4476 75.531 13.6056 75.531 16.2927C75.531 17.9628 75.2206 19.4678 74.5975 20.8125C73.9743 22.1573 73.0284 23.2181 71.7548 23.9949C70.4811 24.7716 68.8624 25.1624 66.8937 25.1624H66.8961ZM66.8961 22.3612C68.3436 22.3612 69.4484 22.0505 70.2155 21.4267C70.9827 20.8052 71.5115 20.0261 71.7995 19.0939C72.0875 18.1594 72.2339 17.1981 72.2339 16.2077C72.2339 15.2174 72.0899 14.2488 71.7995 13.3021C71.509 12.3555 70.9827 11.569 70.2155 10.9476C69.4484 10.3262 68.3411 10.013 66.8961 10.013C65.4512 10.013 64.3787 10.3237 63.5966 10.9476C62.8146 11.569 62.2734 12.3555 61.968 13.3021C61.6651 14.2513 61.5136 15.2198 61.5136 16.2077C61.5136 17.1957 61.6651 18.1594 61.968 19.0939C62.2709 20.0285 62.8146 20.8052 63.5966 21.4267C64.3787 22.0481 65.4785 22.3612 66.8961 22.3612Z" fill="white"/>
<path d="M91.331 7.42542H94.6727V8.06139L88.163 24.7377H83.431L76.9214 8.06139V7.42542H80.2209L85.8194 22.0238H85.9063L91.331 7.42542Z" fill="white"/>
<path d="M104.916 25.1624C102.948 25.1624 101.329 24.7304 100.055 23.8686C98.7816 23.0069 97.8407 21.8879 97.2349 20.5164C96.6266 19.1449 96.3237 17.7225 96.3237 16.2514C96.3237 14.6105 96.6564 13.1104 97.3218 11.7535C97.9871 10.3966 98.9554 9.32121 100.229 8.52745C101.503 7.73612 103.034 7.34045 104.829 7.34045C106.364 7.34045 107.737 7.66573 108.953 8.31627C110.167 8.96681 111.138 9.89408 111.86 11.0956C112.583 12.2972 112.973 13.7197 113.032 15.3606V16.4214H99.5339C99.5339 18.288 100.003 19.7518 100.944 20.8125C101.885 21.8733 103.193 22.4049 104.872 22.4049C106.145 22.4049 107.223 22.0869 108.104 21.4509C108.985 20.815 109.529 19.9581 109.733 18.8828H112.988C112.844 20.0698 112.417 21.1451 111.707 22.1088C110.996 23.07 110.07 23.8201 108.928 24.3565C107.784 24.893 106.448 25.1624 104.914 25.1624H104.916ZM99.6654 14.7659H109.648C109.648 14.426 109.569 13.9964 109.41 13.4721C109.251 12.9478 108.99 12.4259 108.628 11.9015C108.266 11.3772 107.774 10.9403 107.153 10.5859C106.53 10.2315 105.728 10.0543 104.745 10.0543C103.876 10.0543 103.124 10.2024 102.488 10.5009C101.85 10.7971 101.339 11.1806 100.947 11.6467C100.557 12.1127 100.259 12.6225 100.058 13.1735C99.8541 13.7245 99.725 14.2561 99.6679 14.7659H99.6654Z" fill="white"/>
<path d="M116.548 24.7377V7.42542H119.413L119.976 11.4986H120.063C120.09 11.3869 120.215 11.1102 120.431 10.6709C120.647 10.2315 120.987 9.76543 121.451 9.27024C121.913 8.77505 122.536 8.34297 123.318 7.97644C124.1 7.6099 125.083 7.42542 126.27 7.42542C127.457 7.42542 128.534 7.6099 129.329 7.97644C130.123 8.3454 130.761 8.84059 131.238 9.46201C131.714 10.0834 132.062 10.7922 132.28 11.5836C132.499 12.3749 132.635 13.1686 132.693 13.96C132.75 14.7513 132.779 15.5159 132.779 16.2515V24.7377H129.525V16.2078C129.525 15.0766 129.401 14.0716 129.157 13.1954C128.911 12.3191 128.47 11.6248 127.834 11.1151C127.196 10.6053 126.272 10.3504 125.056 10.3504C123.839 10.3504 122.777 10.6417 122.039 11.2194C121.302 11.7996 120.773 12.5497 120.455 13.4672C120.138 14.3872 119.979 15.397 119.979 16.5015V24.7328H116.55L116.548 24.7377Z" fill="white"/>
<path d="M135.034 9.8019V7.42548C135.699 7.42548 136.241 7.38421 136.663 7.29925C137.082 7.21429 137.4 7.03709 137.618 6.77008C137.834 6.50063 137.981 6.0637 138.053 5.45442C138.125 4.84757 138.162 4.01983 138.162 2.97119H140.94V7.4279H145.064V9.80433H135.039L135.034 9.8019ZM141.112 24.7377C139.955 24.7377 139.108 24.4343 138.572 23.825C138.036 23.2182 137.77 22.3322 137.77 21.1719V9.37468H140.938V22.104H145.104V24.7353H141.112V24.7377Z" fill="white"/>
<path d="M156.258 25.1624C154.29 25.1624 152.671 24.7304 151.397 23.8686C150.124 23.0069 149.183 21.8879 148.577 20.5164C147.969 19.1449 147.666 17.7225 147.666 16.2514C147.666 14.6105 147.998 13.1104 148.664 11.7535C149.329 10.3966 150.297 9.32121 151.571 8.52745C152.845 7.73612 154.376 7.34045 156.171 7.34045C157.706 7.34045 159.079 7.66573 160.295 8.31627C161.509 8.96681 162.48 9.89408 163.202 11.0956C163.925 12.2972 164.315 13.7197 164.374 15.3606V16.4214H150.876C150.876 18.288 151.345 19.7518 152.286 20.8125C153.227 21.8733 154.535 22.4049 156.214 22.4049C157.487 22.4049 158.565 22.0869 159.446 21.4509C160.328 20.815 160.871 19.9581 161.075 18.8828H164.33C164.186 20.0698 163.759 21.1451 163.049 22.1088C162.339 23.07 161.412 23.8201 160.27 24.3565C159.126 24.893 157.79 25.1624 156.256 25.1624H156.258ZM151.007 14.7659H160.99C160.99 14.426 160.911 13.9964 160.752 13.4721C160.593 12.9478 160.332 12.4259 159.97 11.9015C159.608 11.3772 159.116 10.9403 158.495 10.5859C157.872 10.2315 157.07 10.0543 156.087 10.0543C155.218 10.0543 154.466 10.2024 153.83 10.5009C153.192 10.7971 152.681 11.1806 152.289 11.6467C151.899 12.1127 151.601 12.6225 151.4 13.1735C151.196 13.7245 151.067 14.2561 151.01 14.7659H151.007Z" fill="white"/>
<path d="M168.235 24.7377V7.42542H171.316L171.619 12.4331L171.574 16.1665V24.7377H168.232H168.235ZM171.577 16.8874L171.448 13.0691C171.477 12.4477 171.629 11.8044 171.904 11.1393C172.18 10.4742 172.585 9.8601 173.118 9.29452C173.655 8.72893 174.347 8.27501 175.201 7.9376C176.055 7.59776 177.061 7.42784 178.218 7.42784H179V11.0762H178.218C176.887 11.0762 175.787 11.2025 174.918 11.4573C174.049 11.7122 173.377 12.086 172.9 12.5812C172.423 13.0764 172.083 13.6857 171.88 14.4066C171.676 15.1276 171.577 15.9553 171.577 16.8899V16.8874Z" fill="white"/>
<path d="M24.6358 0.832599V12.79C24.6358 13.2488 24.256 13.6226 23.7842 13.6226H13.2924C12.8231 13.6226 12.4408 13.994 12.4408 14.4552V26.1698C12.4408 26.6286 12.0609 27.0024 11.5892 27.0024H0.851565C0.382335 27.0024 0 26.631 0 26.1698V14.2124C0 13.7537 0.379853 13.3798 0.851565 13.3798H11.3434C11.8127 13.3798 12.195 13.0084 12.195 12.5472V0.832599C12.195 0.37382 12.5749 0 13.0466 0H23.7867C24.256 0 24.6383 0.371393 24.6383 0.832599H24.6358Z" fill="#5A00DB"/>
<path d="M24.2585 16.2441H15.43C15.2655 16.2441 15.1321 16.3746 15.1321 16.5354V25.1673C15.1321 25.3281 15.2655 25.4586 15.43 25.4586H24.2585C24.423 25.4586 24.5564 25.3281 24.5564 25.1673V16.5354C24.5564 16.3746 24.423 16.2441 24.2585 16.2441Z" fill="#5A00DB"/>
</g>
<defs>
<clipPath id="clip0_992_743">
<rect width="179" height="27" fill="white"/>
</clipPath>
</defs>
</svg>
