<svg width="68" height="68" viewBox="0 0 68 68" fill="none" xmlns="http://www.w3.org/2000/svg">
<g clip-path="url(#clip0_992_525)">
<path d="M56 54H20C18.4087 54 16.8826 53.3679 15.7574 52.2426C14.6321 51.1174 14 49.5913 14 48V12C14 11.4696 13.7893 10.9609 13.4142 10.5858C13.0391 10.2107 12.5304 10 12 10C11.4696 10 10.9609 10.2107 10.5858 10.5858C10.2107 10.9609 10 11.4696 10 12V48C10.0032 50.6512 11.0578 53.1929 12.9324 55.0676C14.8071 56.9422 17.3488 57.9968 20 58H56C56.5304 58 57.0391 57.7893 57.4142 57.4142C57.7893 57.0391 58 56.5304 58 56C58 55.4696 57.7893 54.9609 57.4142 54.5858C57.0391 54.2107 56.5304 54 56 54Z" fill="white" fill-opacity="0.85"/>
<path d="M22 50C22.5304 50 23.0391 49.7893 23.4142 49.4142C23.7893 49.0391 24 48.5304 24 48V34C24 33.4696 23.7893 32.9609 23.4142 32.5858C23.0391 32.2107 22.5304 32 22 32C21.4696 32 20.9609 32.2107 20.5858 32.5858C20.2107 32.9609 20 33.4696 20 34V48C20 48.5304 20.2107 49.0391 20.5858 49.4142C20.9609 49.7893 21.4696 50 22 50Z" fill="white" fill-opacity="0.85"/>
<path d="M30 30V48C30 48.5304 30.2107 49.0391 30.5858 49.4142C30.9609 49.7893 31.4696 50 32 50C32.5304 50 33.0391 49.7893 33.4142 49.4142C33.7893 49.0391 34 48.5304 34 48V30C34 29.4696 33.7893 28.9609 33.4142 28.5858C33.0391 28.2107 32.5304 28 32 28C31.4696 28 30.9609 28.2107 30.5858 28.5858C30.2107 28.9609 30 29.4696 30 30Z" fill="white" fill-opacity="0.85"/>
<path d="M40 36V48C40 48.5304 40.2107 49.0391 40.5858 49.4142C40.9609 49.7893 41.4696 50 42 50C42.5304 50 43.0391 49.7893 43.4142 49.4142C43.7893 49.0391 44 48.5304 44 48V36C44 35.4696 43.7893 34.9609 43.4142 34.5858C43.0391 34.2107 42.5304 34 42 34C41.4696 34 40.9609 34.2107 40.5858 34.5858C40.2107 34.9609 40 35.4696 40 36Z" fill="white" fill-opacity="0.85"/>
<path d="M50 28V48C50 48.5304 50.2107 49.0391 50.5858 49.4142C50.9609 49.7893 51.4696 50 52 50C52.5304 50 53.0391 49.7893 53.4142 49.4142C53.7893 49.0391 54 48.5304 54 48V28C54 27.4696 53.7893 26.9609 53.4142 26.5858C53.0391 26.2107 52.5304 26 52 26C51.4696 26 50.9609 26.2107 50.5858 26.5858C50.2107 26.9609 50 27.4696 50 28Z" fill="white" fill-opacity="0.85"/>
<path d="M22.0001 28C22.5305 27.9999 23.0391 27.7891 23.4141 27.414L30.5861 20.242C30.9673 19.8789 31.4736 19.6763 32.0001 19.6763C32.5266 19.6763 33.0329 19.8789 33.4141 20.242L37.7581 24.586C38.8832 25.7108 40.4091 26.3427 42.0001 26.3427C43.591 26.3427 45.1169 25.7108 46.2421 24.586L57.4141 13.414C57.7784 13.0368 57.98 12.5316 57.9754 12.0072C57.9709 11.4828 57.7605 10.9812 57.3897 10.6104C57.0189 10.2396 56.5173 10.0292 55.9929 10.0247C55.4685 10.0201 54.9633 10.2217 54.5861 10.586L43.4141 21.756C43.039 22.131 42.5304 22.3416 42.0001 22.3416C41.4697 22.3416 40.9611 22.131 40.5861 21.756L36.2421 17.414C35.1169 16.2892 33.591 15.6573 32.0001 15.6573C30.4091 15.6573 28.8832 16.2892 27.7581 17.414L20.5861 24.586C20.3064 24.8657 20.116 25.2221 20.0389 25.61C19.9618 25.9979 20.0014 26.3999 20.1527 26.7653C20.304 27.1307 20.5603 27.4431 20.8891 27.6628C21.218 27.8826 21.6046 27.9999 22.0001 28Z" fill="white" fill-opacity="0.85"/>
</g>
<defs>
<clipPath id="clip0_992_525">
<rect width="48" height="48" fill="white" transform="translate(10 10)"/>
</clipPath>
</defs>
</svg>
