<svg width="69" height="68" viewBox="0 0 69 68" fill="none" xmlns="http://www.w3.org/2000/svg">
<g clip-path="url(#clip0_992_537)">
<path d="M21.75 32C25.61 32 28.75 28.86 28.75 25C28.75 21.14 25.61 18 21.75 18C17.89 18 14.75 21.14 14.75 25C14.75 28.86 17.89 32 21.75 32ZM21.75 22C23.404 22 24.75 23.346 24.75 25C24.75 26.654 23.404 28 21.75 28C20.096 28 18.75 26.654 18.75 25C18.75 23.346 20.096 22 21.75 22ZM28.412 38.628C27.794 39.546 26.554 39.792 25.636 39.176C24.486 38.404 23.142 37.998 21.75 37.998C18.176 37.998 15.186 40.672 14.792 44.218C14.678 45.24 13.812 45.998 12.806 45.998C12.734 45.998 12.66 45.994 12.584 45.986C11.486 45.864 10.696 44.874 10.816 43.778C11.434 38.204 16.134 33.998 21.75 33.998C23.938 33.998 26.05 34.638 27.864 35.852C28.782 36.468 29.028 37.71 28.412 38.628ZM41.75 24C45.61 24 48.75 20.86 48.75 17C48.75 13.14 45.61 10 41.75 10C37.89 10 34.75 13.14 34.75 17C34.75 20.86 37.89 24 41.75 24ZM41.75 14C43.404 14 44.75 15.346 44.75 17C44.75 18.654 43.404 20 41.75 20C40.096 20 38.75 18.654 38.75 17C38.75 15.346 40.096 14 41.75 14ZM44.75 30C37.032 30 30.75 36.282 30.75 44C30.75 51.718 37.032 58 44.75 58C52.468 58 58.75 51.718 58.75 44C58.75 36.282 52.468 30 44.75 30ZM44.75 54C39.236 54 34.75 49.514 34.75 44C34.75 38.486 39.236 34 44.75 34C50.264 34 54.75 38.486 54.75 44C54.75 49.514 50.264 54 44.75 54ZM51.194 41.576C51.958 42.372 51.932 43.638 51.136 44.404L46.71 48.652C45.806 49.544 44.606 49.994 43.404 49.994C42.202 49.994 40.998 49.544 40.078 48.646L37.814 46.428C37.024 45.654 37.014 44.388 37.786 43.6C38.558 42.81 39.824 42.798 40.614 43.572L42.876 45.788C43.164 46.072 43.634 46.066 43.92 45.784L48.366 41.516C49.16 40.754 50.428 40.776 51.194 41.574V41.576Z" fill="white" fill-opacity="0.85"/>
</g>
<defs>
<clipPath id="clip0_992_537">
<rect width="48" height="48" fill="white" transform="translate(10.75 10)"/>
</clipPath>
</defs>
</svg>
