<svg width="69" height="68" viewBox="0 0 69 68" fill="none" xmlns="http://www.w3.org/2000/svg">
<g clip-path="url(#clip0_992_544)">
<path d="M16.5 21C16.5 19.344 17.844 18 19.5 18C21.156 18 22.5 19.344 22.5 21C22.5 22.656 21.156 24 19.5 24C17.844 24 16.5 22.656 16.5 21ZM27.5 24C29.156 24 30.5 22.656 30.5 21C30.5 19.344 29.156 18 27.5 18C25.844 18 24.5 19.344 24.5 21C24.5 22.656 25.844 24 27.5 24ZM58.5 22V46C58.5 51.514 54.014 56 48.5 56H20.5C14.986 56 10.5 51.514 10.5 46V22C10.5 16.486 14.986 12 20.5 12H48.5C54.014 12 58.5 16.486 58.5 22ZM14.5 22V26H54.5V22C54.5 18.692 51.808 16 48.5 16H20.5C17.192 16 14.5 18.692 14.5 22ZM54.5 46V30H14.5V46C14.5 49.308 17.192 52 20.5 52H48.5C51.808 52 54.5 49.308 54.5 46ZM30.914 36.414C31.696 35.632 31.696 34.368 30.914 33.586C30.132 32.804 28.868 32.804 28.086 33.586L23.724 37.948C21.98 39.692 21.98 42.528 23.762 44.308L28.124 48.45C28.922 49.212 30.19 49.18 30.95 48.378C31.712 47.578 31.678 46.312 30.878 45.552L26.554 41.444C26.37 41.26 26.37 40.96 26.554 40.776L30.916 36.414H30.914ZM40.914 33.586C40.132 32.804 38.868 32.804 38.086 33.586C37.304 34.368 37.304 35.632 38.086 36.414L42.448 40.776C42.632 40.96 42.632 41.26 42.47 41.422L38.152 45.608C37.36 46.376 37.34 47.644 38.11 48.436C38.88 49.23 40.146 49.248 40.938 48.478L45.278 44.27C47.022 42.526 47.022 39.69 45.278 37.946L40.916 33.584L40.914 33.586Z" fill="white" fill-opacity="0.85"/>
</g>
<defs>
<clipPath id="clip0_992_544">
<rect width="48" height="48" fill="white" transform="translate(10.5 10)"/>
</clipPath>
</defs>
</svg>
