<svg width="69" height="68" viewBox="0 0 69 68" fill="none" xmlns="http://www.w3.org/2000/svg">
<g clip-path="url(#clip0_992_551)">
<path d="M56.25 44C57.354 44 58.25 43.104 58.25 42C58.25 40.896 57.354 40 56.25 40H54.322L54.534 38.238C54.666 37.142 53.884 36.146 52.786 36.014C51.696 35.87 50.694 36.664 50.562 37.762L50.294 40H44.024L44.236 38.238C44.368 37.142 43.586 36.146 42.488 36.014C41.396 35.87 40.396 36.664 40.264 37.762L39.996 40H37.25C36.146 40 35.25 40.896 35.25 42C35.25 43.104 36.146 44 37.25 44H39.516L38.796 50H36.252C35.148 50 34.252 50.896 34.252 52C34.252 53.104 35.148 54 36.252 54H38.316L38.104 55.762C37.972 56.858 38.628 58.032 40.092 58C41.09 58 41.952 57.254 42.074 56.238L42.342 54H48.612L48.4 55.762C48.268 56.858 49.042 58.012 50.388 58C51.386 58 52.248 57.254 52.37 56.238L52.638 54H55.248C56.352 54 57.248 53.104 57.248 52C57.248 50.896 56.352 50 55.248 50H53.118L53.838 44H56.246H56.25ZM49.092 50H42.822L43.542 44H49.812L49.092 50ZM32.25 40V44C32.25 45.104 31.354 46 30.25 46C29.146 46 28.25 45.104 28.25 44V40C28.25 38.896 29.146 38 30.25 38C31.354 38 32.25 38.896 32.25 40ZM28.25 54H20.25C16.942 54 14.25 51.308 14.25 48V36C14.25 32.692 16.942 30 20.25 30H40.25C42.082 30 43.788 30.82 44.934 32.25C45.624 33.112 46.884 33.248 47.746 32.56C48.608 31.87 48.746 30.61 48.056 29.748C47.024 28.46 45.714 27.482 44.25 26.844V24C44.25 16.28 37.97 10 30.25 10C22.53 10 16.25 16.28 16.25 24V26.848C12.724 28.396 10.25 31.91 10.25 36V48C10.25 53.514 14.736 58 20.25 58H28.25C29.354 58 30.25 57.104 30.25 56C30.25 54.896 29.354 54 28.25 54ZM20.25 24C20.25 18.486 24.736 14 30.25 14C35.764 14 40.25 18.486 40.25 24V26H20.25V24Z" fill="white" fill-opacity="0.85"/>
</g>
<defs>
<clipPath id="clip0_992_551">
<rect width="48" height="48" fill="white" transform="translate(10.25 10)"/>
</clipPath>
</defs>
</svg>
