<svg width="151" height="150" viewBox="0 0 151 150" fill="none" xmlns="http://www.w3.org/2000/svg">
<rect x="0.666748" width="150" height="150" rx="24" fill="white" fill-opacity="0.1"/>
<g clip-path="url(#clip0_992_1051)">
<path d="M100.176 55.0693L89.4339 44.3208C87.4338 42.3109 85.0552 40.7174 82.4354 39.6324C79.8157 38.5475 77.0069 37.9927 74.1714 37.9999H60.2502C56.1629 38.0048 52.2445 39.6307 49.3543 42.5208C46.4642 45.4109 44.8384 49.3294 44.8335 53.4166V96.5833C44.8384 100.671 46.4642 104.589 49.3543 107.479C52.2445 110.369 56.1629 111.995 60.2502 112H91.0835C95.1707 111.995 99.0892 110.369 101.979 107.479C104.869 104.589 106.495 100.671 106.5 96.5833V70.3287C106.508 67.4933 105.953 64.6846 104.867 62.0653C103.782 59.4459 102.187 57.068 100.176 55.0693ZM95.8164 59.4291C96.7579 60.3977 97.5676 61.4863 98.2245 62.6666H84.9168C84.0991 62.6666 83.3148 62.3418 82.7366 61.7635C82.1583 61.1853 81.8335 60.401 81.8335 59.5833V46.2756C83.0142 46.9321 84.1037 47.7407 85.0741 48.6806L95.8164 59.4291ZM100.333 96.5833C100.333 99.0365 99.3589 101.389 97.6242 103.124C95.8895 104.859 93.5368 105.833 91.0835 105.833H60.2502C57.7969 105.833 55.4441 104.859 53.7094 103.124C51.9747 101.389 51.0002 99.0365 51.0002 96.5833V53.4166C51.0002 50.9634 51.9747 48.6106 53.7094 46.8759C55.4441 45.1412 57.7969 44.1666 60.2502 44.1666H74.1714C74.6771 44.1666 75.1673 44.2653 75.6668 44.3115V59.5833C75.6668 62.0365 76.6414 64.3893 78.3761 66.124C80.1108 67.8587 82.4636 68.8333 84.9168 68.8333H100.189C100.235 69.3328 100.333 69.8199 100.333 70.3287V96.5833Z" fill="white"/>
</g>
<defs>
<clipPath id="clip0_992_1051">
<rect width="74" height="74" fill="white" transform="translate(38.6667 38)"/>
</clipPath>
</defs>
</svg>
