<svg width="150" height="150" viewBox="0 0 150 150" fill="none" xmlns="http://www.w3.org/2000/svg">
<rect width="150" height="150" rx="24" fill="white" fill-opacity="0.1"/>
<g clip-path="url(#clip0_992_1058)">
<path d="M96.5833 50.3333H93.1917C92.476 46.8535 90.5826 43.7268 87.8305 41.4802C85.0784 39.2336 81.636 38.0045 78.0833 38L71.9167 38C68.364 38.0045 64.9216 39.2336 62.1695 41.4802C59.4174 43.7268 57.524 46.8535 56.8083 50.3333H53.4167C49.3294 50.3382 45.411 51.9641 42.5208 54.8542C39.6307 57.7443 38.0049 61.6627 38 65.75V96.5833C38.0049 100.671 39.6307 104.589 42.5208 107.479C45.411 110.369 49.3294 111.995 53.4167 112H96.5833C100.671 111.995 104.589 110.369 107.479 107.479C110.369 104.589 111.995 100.671 112 96.5833V65.75C111.995 61.6627 110.369 57.7443 107.479 54.8542C104.589 51.9641 100.671 50.3382 96.5833 50.3333ZM71.9167 44.1667H78.0833C79.9896 44.1746 81.8469 44.7713 83.4012 45.8751C84.9554 46.9789 86.1306 48.536 86.766 50.3333H63.234C63.8694 48.536 65.0446 46.9789 66.5988 45.8751C68.1531 44.7713 70.0104 44.1746 71.9167 44.1667ZM53.4167 56.5H96.5833C99.0366 56.5 101.389 57.4746 103.124 59.2093C104.859 60.944 105.833 63.2967 105.833 65.75V75H44.1667V65.75C44.1667 63.2967 45.1412 60.944 46.8759 59.2093C48.6106 57.4746 50.9634 56.5 53.4167 56.5ZM96.5833 105.833H53.4167C50.9634 105.833 48.6106 104.859 46.8759 103.124C45.1412 101.389 44.1667 99.0366 44.1667 96.5833V81.1667H71.9167V84.25C71.9167 85.0677 72.2415 85.852 72.8198 86.4302C73.398 87.0085 74.1822 87.3333 75 87.3333C75.8177 87.3333 76.602 87.0085 77.1802 86.4302C77.7585 85.852 78.0833 85.0677 78.0833 84.25V81.1667H105.833V96.5833C105.833 99.0366 104.859 101.389 103.124 103.124C101.389 104.859 99.0366 105.833 96.5833 105.833Z" fill="white"/>
</g>
<defs>
<clipPath id="clip0_992_1058">
<rect width="74" height="74" fill="white" transform="translate(38 38)"/>
</clipPath>
</defs>
</svg>
