<svg width="151" height="150" viewBox="0 0 151 150" fill="none" xmlns="http://www.w3.org/2000/svg">
<rect x="0.166504" width="150" height="150" rx="24" fill="white" fill-opacity="0.1"/>
<g clip-path="url(#clip0_992_1065)">
<path d="M59.7499 112C63.1557 112 65.9166 109.239 65.9166 105.833C65.9166 102.428 63.1557 99.6667 59.7499 99.6667C56.3442 99.6667 53.5833 102.428 53.5833 105.833C53.5833 109.239 56.3442 112 59.7499 112Z" fill="white"/>
<path d="M90.5832 112C93.9889 112 96.7498 109.239 96.7498 105.833C96.7498 102.428 93.9889 99.6667 90.5832 99.6667C87.1774 99.6667 84.4165 102.428 84.4165 105.833C84.4165 109.239 87.1774 112 90.5832 112Z" fill="white"/>
<path d="M109.083 47.25H102.916V41.0833C102.916 40.2656 102.592 39.4813 102.013 38.9031C101.435 38.3249 100.651 38 99.8331 38C99.0153 38 98.2311 38.3249 97.6528 38.9031C97.0746 39.4813 96.7498 40.2656 96.7498 41.0833V47.25H90.5831C89.7653 47.25 88.9811 47.5749 88.4028 48.1531C87.8246 48.7313 87.4998 49.5156 87.4998 50.3333C87.4998 51.1511 87.8246 51.9353 88.4028 52.5136C88.9811 53.0918 89.7653 53.4167 90.5831 53.4167H96.7498V59.5833C96.7498 60.4011 97.0746 61.1853 97.6528 61.7636C98.2311 62.3418 99.0153 62.6667 99.8331 62.6667C100.651 62.6667 101.435 62.3418 102.013 61.7636C102.592 61.1853 102.916 60.4011 102.916 59.5833V53.4167H109.083C109.901 53.4167 110.685 53.0918 111.263 52.5136C111.842 51.9353 112.166 51.1511 112.166 50.3333C112.166 49.5156 111.842 48.7313 111.263 48.1531C110.685 47.5749 109.901 47.25 109.083 47.25Z" fill="white"/>
<path d="M105.294 67.9885C104.895 67.9139 104.486 67.9192 104.089 68.004C103.692 68.0889 103.317 68.2516 102.983 68.4827C102.65 68.7139 102.366 69.0089 102.148 69.3507C101.929 69.6924 101.781 70.0741 101.711 70.4737C101.326 72.6078 100.204 74.539 98.5406 75.9299C96.8769 77.3208 94.7774 78.083 92.6089 78.0833H54.872L51.9737 53.4167H78.2498C79.0676 53.4167 79.8518 53.0918 80.4301 52.5136C81.0083 51.9353 81.3332 51.1511 81.3332 50.3333C81.3332 49.5156 81.0083 48.7313 80.4301 48.1531C79.8518 47.5749 79.0676 47.25 78.2498 47.25H51.246L51.1165 46.1647C50.8508 43.9157 49.7693 41.8423 48.0769 40.3375C46.3846 38.8327 44.199 38.001 41.9343 38H41.2498C40.4321 38 39.6478 38.3249 39.0696 38.9031C38.4914 39.4813 38.1665 40.2656 38.1665 41.0833C38.1665 41.9011 38.4914 42.6853 39.0696 43.2636C39.6478 43.8418 40.4321 44.1667 41.2498 44.1667H41.9343C42.6895 44.1668 43.4185 44.444 43.9828 44.9459C44.5472 45.4477 44.9077 46.1392 44.9961 46.8892L49.2388 82.9643C49.6792 86.716 51.4818 90.1755 54.3044 92.686C57.127 95.1966 60.7731 96.5834 64.5506 96.5833H96.7498C97.5676 96.5833 98.3518 96.2585 98.9301 95.6803C99.5083 95.102 99.8332 94.3178 99.8332 93.5C99.8332 92.6823 99.5083 91.898 98.9301 91.3198C98.3518 90.7415 97.5676 90.4167 96.7498 90.4167H64.5506C62.6374 90.417 60.7712 89.8242 59.2091 88.7198C57.6469 87.6154 56.4656 86.0537 55.8278 84.25H92.6089C96.223 84.2504 99.7224 82.981 102.496 80.6635C105.269 78.3461 107.14 75.128 107.782 71.5713C107.854 71.1727 107.847 70.7638 107.761 70.3679C107.675 69.9721 107.511 69.597 107.28 69.2643C107.049 68.9316 106.755 68.6476 106.414 68.4287C106.073 68.2098 105.692 68.0602 105.294 67.9885Z" fill="white"/>
</g>
<defs>
<clipPath id="clip0_992_1065">
<rect width="74" height="74" fill="white" transform="translate(38.1665 38)"/>
</clipPath>
</defs>
</svg>
