<svg width="151" height="150" viewBox="0 0 151 150" fill="none" xmlns="http://www.w3.org/2000/svg">
<rect x="0.666748" width="150" height="150" rx="24" fill="white" fill-opacity="0.1"/>
<g clip-path="url(#clip0_992_1076)">
<path d="M60.4289 53.2995C63.0158 53.2995 65.3468 54.3663 67.0242 56.0776C62.9387 58.8526 60.247 63.5362 60.247 68.8364C60.247 69.8477 60.358 70.8313 60.5461 71.7902C60.506 71.7902 60.469 71.8026 60.4289 71.8026C55.3198 71.8026 51.1789 67.6617 51.1789 62.5526C51.1789 57.4435 55.3198 53.2995 60.4289 53.2995ZM91.0834 53.4167C88.4903 53.4167 86.1532 54.4928 84.4727 56.2102C88.4595 59.0006 91.0834 63.6071 91.0834 68.8333C91.0834 69.8786 90.9755 70.8992 90.7751 71.8858C90.8799 71.8889 90.9786 71.9167 91.0834 71.9167C96.1925 71.9167 100.333 67.7757 100.333 62.6667C100.333 57.5576 96.1925 53.4167 91.0834 53.4167ZM75.6667 78.0833C80.7758 78.0833 84.9167 73.9424 84.9167 68.8333C84.9167 63.7242 80.7758 59.5833 75.6667 59.5833C70.5577 59.5833 66.4167 63.7242 66.4167 68.8333C66.4167 73.9424 70.5577 78.0833 75.6667 78.0833ZM75.6667 84.25C70.2586 84.25 65.3838 87.5276 63.5338 92.4085C62.9295 94.0026 63.7312 95.7817 65.3252 96.386C66.9132 96.9873 68.6984 96.1887 69.3027 94.5946C70.2493 92.094 72.8085 90.4197 75.6698 90.4197C78.5312 90.4197 81.0903 92.0971 82.0369 94.5946C82.5025 95.8248 83.6772 96.5864 84.9198 96.5864C85.2837 96.5864 85.6537 96.5217 86.0113 96.3891C87.6023 95.7847 88.404 94.0057 87.8027 92.4116C85.9527 87.5337 81.078 84.2531 75.6698 84.2531L75.6667 84.25ZM87.0751 78.6907C85.4502 79.2026 84.5467 80.9323 85.0586 82.5573C85.5704 84.1791 87.3063 85.0794 88.9251 84.5737C89.6127 84.3579 90.3372 84.25 91.0834 84.25C93.9447 84.25 96.5039 85.9273 97.4505 88.4248C97.9161 89.6551 99.0908 90.4167 100.333 90.4167C100.697 90.4167 101.067 90.3519 101.425 90.2193C103.016 89.615 103.818 87.8359 103.216 86.2418C101.366 81.364 96.4916 78.0833 91.0834 78.0833C89.7082 78.0833 88.3608 78.2868 87.0751 78.6907ZM60.2501 78.0833C54.8419 78.0833 49.9672 81.3609 48.1172 86.2418C47.5128 87.8359 48.3145 89.615 49.9086 90.2193C50.2693 90.355 50.6362 90.4167 51.0001 90.4167C52.2427 90.4167 53.4174 89.6582 53.883 88.4248C54.8296 85.9242 57.3887 84.25 60.2501 84.25C60.9962 84.25 61.7239 84.3579 62.4084 84.5737C64.0272 85.0794 65.7631 84.1791 66.2749 82.5573C66.7867 80.9323 65.8833 79.2026 64.2584 78.6907C62.9727 78.2868 61.6252 78.0833 60.2501 78.0833ZM60.2501 105.833H54.0834C48.9836 105.833 44.8334 101.683 44.8334 96.5833V90.4167C44.8334 88.7116 43.4521 87.3333 41.7501 87.3333C40.0481 87.3333 38.6667 88.7116 38.6667 90.4167V96.5833C38.6667 105.084 45.5827 112 54.0834 112H60.2501C61.9521 112 63.3334 110.622 63.3334 108.917C63.3334 107.212 61.9521 105.833 60.2501 105.833ZM109.583 87.3333C107.881 87.3333 106.5 88.7116 106.5 90.4167V96.5833C106.5 101.683 102.35 105.833 97.2501 105.833H91.0834C89.3814 105.833 88.0001 107.212 88.0001 108.917C88.0001 110.622 89.3814 112 91.0834 112H97.2501C105.751 112 112.667 105.084 112.667 96.5833V90.4167C112.667 88.7116 111.285 87.3333 109.583 87.3333ZM97.2501 38H91.0834C89.3814 38 88.0001 39.3783 88.0001 41.0833C88.0001 42.7884 89.3814 44.1667 91.0834 44.1667H97.2501C102.35 44.1667 106.5 48.3168 106.5 53.4167V59.5833C106.5 61.2884 107.881 62.6667 109.583 62.6667C111.285 62.6667 112.667 61.2884 112.667 59.5833V53.4167C112.667 44.9159 105.751 38 97.2501 38ZM41.7501 62.6667C43.4521 62.6667 44.8334 61.2884 44.8334 59.5833V53.4167C44.8334 48.3168 48.9836 44.1667 54.0834 44.1667H60.2501C61.9521 44.1667 63.3334 42.7884 63.3334 41.0833C63.3334 39.3783 61.9521 38 60.2501 38H54.0834C45.5827 38 38.6667 44.9159 38.6667 53.4167V59.5833C38.6667 61.2884 40.0481 62.6667 41.7501 62.6667Z" fill="white"/>
</g>
<defs>
<clipPath id="clip0_992_1076">
<rect width="74" height="74" fill="white" transform="translate(38.6667 38)"/>
</clipPath>
</defs>
</svg>
